<svg width="44" height="44" viewBox="0 0 44 44" fill="none" xmlns="http://www.w3.org/2000/svg">
<rect width="44" height="44" rx="8" fill="#31353F"/>
<path d="M21.65 12.35L16.36 17.64C16.16 17.84 16.16 18.15 16.36 18.35L17.65 19.64C17.85 19.84 18.16 19.84 18.36 19.64L21.65 16.35C21.85 16.15 22.16 16.15 22.36 16.35L25.65 19.64C25.85 19.84 26.16 19.84 26.36 19.64L27.65 18.35C27.85 18.15 27.85 17.84 27.65 17.64L22.36 12.35C22.16 12.16 21.84 12.16 21.65 12.35Z" fill="#FFC01E"/>
<path d="M21.65 31.65L16.36 26.36C16.16 26.16 16.16 25.85 16.36 25.65L17.65 24.36C17.85 24.16 18.16 24.16 18.36 24.36L21.65 27.65C21.85 27.85 22.16 27.85 22.36 27.65L25.65 24.36C25.85 24.16 26.16 24.16 26.36 24.36L27.65 25.65C27.85 25.85 27.85 26.16 27.65 26.36L22.36 31.65C22.16 31.84 21.84 31.84 21.65 31.65Z" fill="#FFC01E"/>
<path d="M30.1002 20.1L31.6402 21.64C31.8402 21.84 31.8402 22.15 31.6402 22.35L30.1002 23.89C29.9002 24.09 29.5902 24.09 29.3902 23.89L27.8502 22.35C27.6502 22.15 27.6502 21.84 27.8502 21.64L29.3902 20.1C29.5902 19.91 29.9102 19.91 30.1002 20.1Z" fill="#FFC01E"/>
<path d="M14.6002 20.1L16.1402 21.64C16.3402 21.84 16.3402 22.15 16.1402 22.35L14.6002 23.89C14.4002 24.09 14.0902 24.09 13.8902 23.89L12.3502 22.35C12.1502 22.15 12.1502 21.84 12.3502 21.64L13.8902 20.1C14.0902 19.91 14.4102 19.91 14.6002 20.1Z" fill="#FFC01E"/>
<path d="M22.3502 19.88L24.1202 21.65C24.3202 21.85 24.3202 22.16 24.1202 22.36L22.3502 24.13C22.1502 24.33 21.8402 24.33 21.6402 24.13L19.8702 22.36C19.6702 22.16 19.6702 21.85 19.8702 21.65L21.6402 19.88C21.8402 19.68 22.1602 19.68 22.3502 19.88Z" fill="#FFC01E"/>
</svg>
