<svg width="32" height="32" viewBox="0 0 32 32" fill="none" xmlns="http://www.w3.org/2000/svg">
<rect x="0.5" y="0.5" width="31" height="31" rx="4.5" stroke="#31353F"/>
<path d="M11.875 24.0625C11.5675 24.0625 11.3125 23.8075 11.3125 23.5V18.25C11.3125 17.9425 11.5675 17.6875 11.875 17.6875C12.1825 17.6875 12.4375 17.9425 12.4375 18.25V23.5C12.4375 23.8075 12.1825 24.0625 11.875 24.0625Z" fill="#9E9E9E"/>
<path d="M11.875 11.3125C11.5675 11.3125 11.3125 11.0575 11.3125 10.75V8.5C11.3125 8.1925 11.5675 7.9375 11.875 7.9375C12.1825 7.9375 12.4375 8.1925 12.4375 8.5V10.75C12.4375 11.0575 12.1825 11.3125 11.875 11.3125Z" fill="#9E9E9E"/>
<path d="M20.125 24.0625C19.8175 24.0625 19.5625 23.8075 19.5625 23.5V21.25C19.5625 20.9425 19.8175 20.6875 20.125 20.6875C20.4325 20.6875 20.6875 20.9425 20.6875 21.25V23.5C20.6875 23.8075 20.4325 24.0625 20.125 24.0625Z" fill="#9E9E9E"/>
<path d="M20.125 14.3125C19.8175 14.3125 19.5625 14.0575 19.5625 13.75V8.5C19.5625 8.1925 19.8175 7.9375 20.125 7.9375C20.4325 7.9375 20.6875 8.1925 20.6875 8.5V13.75C20.6875 14.0575 20.4325 14.3125 20.125 14.3125Z" fill="#9E9E9E"/>
<path d="M12.625 18.8125H11.125C9.835 18.8125 9.0625 18.04 9.0625 16.75V12.25C9.0625 10.96 9.835 10.1875 11.125 10.1875H12.625C13.915 10.1875 14.6875 10.96 14.6875 12.25V16.75C14.6875 18.04 13.915 18.8125 12.625 18.8125ZM11.125 11.3125C10.4575 11.3125 10.1875 11.5825 10.1875 12.25V16.75C10.1875 17.4175 10.4575 17.6875 11.125 17.6875H12.625C13.2925 17.6875 13.5625 17.4175 13.5625 16.75V12.25C13.5625 11.5825 13.2925 11.3125 12.625 11.3125H11.125Z" fill="#9E9E9E"/>
<path d="M20.875 21.8125H19.375C18.085 21.8125 17.3125 21.04 17.3125 19.75V15.25C17.3125 13.96 18.085 13.1875 19.375 13.1875H20.875C22.165 13.1875 22.9375 13.96 22.9375 15.25V19.75C22.9375 21.04 22.165 21.8125 20.875 21.8125ZM19.375 14.3125C18.7075 14.3125 18.4375 14.5825 18.4375 15.25V19.75C18.4375 20.4175 18.7075 20.6875 19.375 20.6875H20.875C21.5425 20.6875 21.8125 20.4175 21.8125 19.75V15.25C21.8125 14.5825 21.5425 14.3125 20.875 14.3125H19.375Z" fill="#9E9E9E"/>
</svg>
