<svg width="44" height="44" viewBox="0 0 44 44" fill="none" xmlns="http://www.w3.org/2000/svg">
<rect width="44" height="44" rx="8" fill="#1B2028"/>
<path d="M22.0199 30.53C19.6899 30.53 17.3599 30.16 15.1499 29.42C14.3099 29.13 13.6699 28.54 13.3899 27.77C13.0999 27 13.1999 26.15 13.6599 25.39L14.8099 23.48C15.0499 23.08 15.2699 22.28 15.2699 21.81V18.92C15.2699 15.2 18.2999 12.17 22.0199 12.17C25.7399 12.17 28.7699 15.2 28.7699 18.92V21.81C28.7699 22.27 28.9899 23.08 29.2299 23.49L30.3699 25.39C30.7999 26.11 30.8799 26.98 30.5899 27.77C30.2999 28.56 29.6699 29.16 28.8799 29.42C26.6799 30.16 24.3499 30.53 22.0199 30.53ZM22.0199 13.67C19.1299 13.67 16.7699 16.02 16.7699 18.92V21.81C16.7699 22.54 16.4699 23.62 16.0999 24.25L14.9499 26.16C14.7299 26.53 14.6699 26.92 14.7999 27.25C14.9199 27.59 15.2199 27.85 15.6299 27.99C19.8099 29.39 24.2399 29.39 28.4199 27.99C28.7799 27.87 29.0599 27.6 29.1899 27.24C29.3199 26.88 29.2899 26.49 29.0899 26.16L27.9399 24.25C27.5599 23.6 27.2699 22.53 27.2699 21.8V18.92C27.2699 16.02 24.9199 13.67 22.0199 13.67Z" fill="#9E9E9E"/>
<path d="M23.8801 13.94C23.8101 13.94 23.7401 13.93 23.6701 13.91C23.3801 13.83 23.1001 13.77 22.8301 13.73C21.9801 13.62 21.1601 13.68 20.3901 13.91C20.1101 14 19.8101 13.91 19.6201 13.7C19.4301 13.49 19.3701 13.19 19.4801 12.92C19.8901 11.87 20.8901 11.18 22.0301 11.18C23.1701 11.18 24.1701 11.86 24.5801 12.92C24.6801 13.19 24.6301 13.49 24.4401 13.7C24.2901 13.86 24.0801 13.94 23.8801 13.94Z" fill="#9E9E9E"/>
<path d="M22.02 32.81C21.03 32.81 20.07 32.41 19.37 31.71C18.67 31.01 18.27 30.05 18.27 29.06H19.77C19.77 29.65 20.01 30.23 20.43 30.65C20.85 31.07 21.43 31.31 22.02 31.31C23.26 31.31 24.27 30.3 24.27 29.06H25.77C25.77 31.13 24.09 32.81 22.02 32.81Z" fill="#9E9E9E"/>
<circle cx="27" cy="15" r="2.5" fill="#F46D22" stroke="white"/>
</svg>
